<!--?xml version="1.0" encoding="UTF-8"?-->
<svg xmlns="http://www.w3.org/2000/svg" viewBox="0 0 512 512">
  <defs>
    <linearGradient id="bg" x1="0" y1="0" x2="0" y2="1">
      <stop offset="0%" stop-color="#0B2A66"></stop>
      <stop offset="100%" stop-color="#2FA7FF"></stop>
    </linearGradient>
  </defs>

  <!-- Rounded container -->
  <rect x="32" y="32" width="448" height="448" rx="96" fill="url(#bg)"></rect>

  <!-- Shield -->
  <path d="M256 110
           C292 126 332 136 364 142
           V260
           C364 340 312 404 256 432
           C200 404 148 340 148 260
           V142
           C180 136 220 126 256 110Z" fill="#0E3A8A" stroke="#7FE3FF" stroke-width="10"></path>

  <!-- Chain -->
  <line x1="170" y1="190" x2="342" y2="190" stroke="#FFD166" stroke-width="8" stroke-linecap="round"></line>

  <!-- Diamonds -->
  <g transform="translate(170 190)">
    <rect x="-16" y="-16" width="32" height="32" rx="6" fill="#3B82F6" transform="rotate(45)"></rect>
  </g>
  <g transform="translate(256 190)">
    <rect x="-22" y="-22" width="44" height="44" rx="8" fill="#FBBF24" transform="rotate(45)"></rect>
  </g>
  <g transform="translate(342 190)">
    <rect x="-16" y="-16" width="32" height="32" rx="6" fill="#8B5CF6" transform="rotate(45)"></rect>
  </g>

  <!-- Lock -->
  <path d="M230 260
           v-12
           c0-14 12-26 26-26
           s26 12 26 26
           v12" fill="none" stroke="#EAF6FF" stroke-width="10" stroke-linecap="round"></path>

  <rect x="220" y="260" width="72" height="64" rx="14" fill="#EAF6FF"></rect>
  <circle cx="256" cy="292" r="8" fill="#0B2A66"></circle>
</svg>
